<?xml version="1.0" encoding="UTF-8" standalone="no"?>
<svg
   xmlns:dc="http://purl.org/dc/elements/1.1/"
   xmlns:cc="http://creativecommons.org/ns#"
   xmlns:rdf="http://www.w3.org/1999/02/22-rdf-syntax-ns#"
   xmlns:svg="http://www.w3.org/2000/svg"
   xmlns="http://www.w3.org/2000/svg"
   xmlns:sodipodi="http://sodipodi.sourceforge.net/DTD/sodipodi-0.dtd"
   xmlns:inkscape="http://www.inkscape.org/namespaces/inkscape"
   viewBox="0 0 700.00002 700"
   class="LogoComponent___StyledLogoQualcommIcon-mkbfcy-1 jLFBcp"
   version="1.1"
   id="svg6"
   sodipodi:docname="qualcomm-logo.svg"
   width="700"
   height="700"
   inkscape:version="0.92.4 (5da689c313, 2019-01-14)"
   inkscape:export-filename="C:\Users\suitedoalex\Downloads\qualcomm-logo-0.png"
   inkscape:export-xdpi="561.73712"
   inkscape:export-ydpi="561.73712">
  <metadata
     id="metadata12">
    <rdf:RDF>
      <cc:Work
         rdf:about="">
        <dc:format>image/svg+xml</dc:format>
        <dc:type
           rdf:resource="http://purl.org/dc/dcmitype/StillImage" />
        <dc:title></dc:title>
      </cc:Work>
    </rdf:RDF>
  </metadata>
  <defs
     id="defs10" />
  <sodipodi:namedview
     pagecolor="#ffffff"
     bordercolor="#666666"
     borderopacity="1"
     objecttolerance="10"
     gridtolerance="10"
     guidetolerance="10"
     inkscape:pageopacity="0"
     inkscape:pageshadow="2"
     inkscape:window-width="1600"
     inkscape:window-height="837"
     id="namedview8"
     showgrid="false"
     inkscape:zoom="0.40454315"
     inkscape:cx="459.25859"
     inkscape:cy="355.08159"
     inkscape:window-x="-8"
     inkscape:window-y="-8"
     inkscape:window-maximized="1"
     inkscape:current-layer="svg6" />
  <path
     d="M 0.81613229,741.51734 H 703.7124 V 1010.0441 H 0.81613229 Z"
     id="path2-0"
     inkscape:connector-curvature="0"
     style="fill:#3253dc;fill-opacity:1;stroke-width:0.67912686"
     inkscape:export-filename="C:\Users\suitedoalex\Downloads\qualcomm-logo-4.png"
     inkscape:export-xdpi="95.604439"
     inkscape:export-ydpi="95.604439" />
  <path
     d="m 229.81398,854.96548 c 1.42617,0 2.64859,1.15451 2.64859,2.64859 v 50.59495 c 0,1.42617 -1.29034,2.58068 -2.64859,2.58068 h -6.85919 c -1.29034,0 -2.58068,-1.01869 -2.58068,-2.44485 v -4.68598 c -3.46354,5.09345 -9.43986,8.62491 -18.13268,8.62491 -14.53331,0 -23.49779,-9.6436 -23.49779,-23.97318 v -30.83236 c 0,-1.42616 1.29034,-2.58068 2.6486,-2.58068 h 6.85918 c 1.42617,0 2.58068,1.15452 2.58068,2.58068 v 28.86289 c 0,9.30405 4.88971,15.4841 14.53331,15.4841 9.43987,0 15.0087,-6.3838 15.0087,-15.34827 v -28.99872 c 0,-1.42616 1.29034,-2.58068 2.58068,-2.58068 h 6.85919 m -101.1899,-27.98002 c -23.49779,0 -42.445427,18.26851 -42.445427,42.64916 0,24.44857 18.947637,42.64917 42.445427,42.64917 4.00685,0 7.87787,-0.54331 11.54516,-1.56199 l 4.61806,11.88472 c 0.47539,1.29034 1.42616,2.10529 3.12398,2.10529 h 7.33458 c 1.76572,0 3.05606,-1.15452 2.24112,-3.39563 l -5.97632,-15.55201 c 11.74889,-7.40248 19.55885,-20.50963 19.55885,-36.19746 0,-24.31274 -18.94764,-42.58125 -42.44543,-42.58125 m 18.47226,67.4373 -5.36511,-13.9221 c -0.47538,-1.15452 -1.42616,-2.24113 -3.46354,-2.24113 h -6.99502 c -1.76572,0 -3.12397,1.15452 -2.30903,3.39564 l 7.06293,18.26851 c -2.30903,0.61122 -4.8218,0.88286 -7.40249,0.88286 -17.18191,0 -29.40619,-13.51461 -29.40619,-31.17192 0,-17.6573 12.22428,-31.17192 29.40619,-31.17192 17.18192,0 29.4062,13.51462 29.4062,31.17192 0,10.32273 -4.14268,19.15138 -10.93394,24.78814 m 471.04236,13.58253 c 0.61121,1.42616 -0.13582,2.78442 -1.83364,2.78442 h -7.67414 c -1.42616,0 -2.58068,-0.67913 -3.05607,-2.10529 L 591.3811,870.44957 576.98361,908.6165 c -0.61121,1.49407 -1.6299,2.10529 -3.05607,2.10529 h -6.85918 c -1.42616,0 -2.44486,-0.61122 -3.05607,-2.10529 L 549.47897,870.24583 535.1494,908.6165 c -0.61122,1.42616 -1.6299,2.10529 -3.05607,2.10529 h -7.19875 c -1.42617,0 -2.44485,-0.67913 -3.05607,-2.10529 l -14.19375,-38.37067 -14.66914,38.37067 c -0.61121,1.49407 -1.62991,2.10529 -3.05607,2.10529 h -6.85918 c -1.42617,0 -2.44486,-0.61122 -3.05607,-2.10529 l -14.32958,-38.37067 -14.32958,38.37067 c -0.47538,1.42616 -1.6299,2.10529 -3.05606,2.10529 h -7.4704 c -1.76573,0 -2.44486,-1.42616 -1.83365,-2.78442 l 19.42304,-50.79869 c 0.61121,-1.49407 1.6299,-2.24112 3.05606,-2.24112 h 8.35327 c 1.42616,0 2.44485,0.67913 3.05607,2.24112 l 13.99001,37.08033 13.85418,-37.08033 c 0.61123,-1.49407 1.62991,-2.24112 3.05608,-2.24112 h 8.21744 c 1.42616,0 2.44485,0.67913 3.05606,2.24112 l 13.71836,37.08033 13.71837,-37.08033 c 0.61121,-1.49407 1.6299,-2.24112 3.05607,-2.24112 h 8.28535 c 1.42617,0 2.44486,0.67913 3.05607,2.24112 l 13.9221,37.08033 13.58253,-37.08033 c 0.61122,-1.49407 1.62991,-2.24112 3.05608,-2.24112 h 8.35326 c 1.42616,0 2.44485,0.67913 3.05606,2.24112 l 19.28721,50.79869 M 296.3005,854.96548 h -6.85918 c -1.42617,0 -2.6486,1.15451 -2.6486,2.64859 v 4.61807 c -3.46355,-5.22928 -10.25482,-8.96448 -18.26851,-8.96448 -15.14453,0 -28.11585,11.95263 -28.11585,29.4062 0,17.65729 13.03923,29.54201 28.04793,29.54201 8.14953,0 14.73706,-3.7352 18.40435,-8.96448 v 4.88972 c 0,1.42617 1.29034,2.58068 2.64858,2.58068 h 6.85918 c 1.42617,0 2.58069,-1.15451 2.58069,-2.58068 v -50.52704 c -0.0679,-1.49408 -1.22243,-2.64859 -2.64859,-2.64859 m -26.48595,46.11271 c -9.98316,0 -17.11399,-8.14952 -17.11399,-18.26852 0,-10.25481 7.06291,-18.13268 17.11399,-18.13268 9.91525,0 17.11399,7.87787 17.11399,18.13268 -0.0679,10.18691 -7.26665,18.26852 -17.11399,18.26852 m 108.32073,1.76573 c 1.49407,1.83364 0.20373,3.25981 -0.61121,3.87102 -4.7539,3.59938 -11.06977,5.56884 -17.92895,5.56884 -17.31774,0 -28.86289,-12.69967 -28.86289,-29.40619 0,-16.70652 11.54515,-29.54202 28.86289,-29.54202 6.85918,0 13.10714,1.96947 17.92895,5.56884 0.81494,0.61122 1.96946,1.83364 0.61121,3.87103 l -3.25981,4.55015 c -1.29034,1.76572 -2.78443,1.29034 -4.07477,0.47538 -3.05606,-1.83364 -6.65543,-3.39563 -10.79811,-3.39563 -10.11899,0 -16.84235,8.14952 -16.84235,18.47225 0,10.32273 6.72336,18.40433 16.84235,18.40433 4.21059,0 7.5383,-1.6299 10.59438,-3.39563 1.29034,-0.67912 2.64859,-1.29034 4.07475,0.61122 z m 32.32643,-49.44043 c -16.29905,0 -29.27037,12.76758 -29.27037,29.40618 0,16.77444 13.03924,29.4062 29.27037,29.4062 16.29905,0 29.27037,-12.69967 29.27037,-29.4062 0.0679,-16.57069 -12.97132,-29.40618 -29.27037,-29.40618 m 0,47.60678 c -9.98316,0 -17.11399,-8.01369 -17.11399,-18.13268 0,-10.25481 7.06291,-18.13268 17.11399,-18.13268 9.98317,0 17.114,7.87787 17.114,18.13268 0,10.11899 -7.06292,18.13268 -17.114,18.13268 m -90.12012,-72.59865 c 1.49407,0 2.58068,1.29034 2.58068,2.64859 v 77.01298 c 0,1.42617 -1.01869,2.6486 -2.58068,2.6486 h -6.85919 c -1.42617,0 -2.64859,-1.29034 -2.64859,-2.6486 v -76.94507 c 0,-1.42616 1.29034,-2.64859 2.64859,-2.64859 h 6.85919"
     id="path4-8"
     style="fill:#ffffff;fill-opacity:1;stroke-width:0.67912686"
     inkscape:connector-curvature="0"
     inkscape:export-filename="C:\Users\suitedoalex\Downloads\qualcomm-logo-4.png"
     inkscape:export-xdpi="95.604439"
     inkscape:export-ydpi="95.604439" />
  <path
     d="m 230.9584,329.76421 c 1.38647,0 2.57487,1.12237 2.57487,2.57487 v 49.18652 c 0,1.38646 -1.25443,2.50884 -2.57487,2.50884 h -6.66824 c -1.25443,0 -2.50884,-0.99034 -2.50884,-2.3768 v -4.55553 c -3.36713,4.95166 -9.17709,8.38481 -17.62792,8.38481 -14.12875,0 -22.84368,-9.37514 -22.84368,-23.30583 v -29.97407 c 0,-1.38646 1.25442,-2.50883 2.57487,-2.50883 h 6.66823 c 1.38647,0 2.50884,1.12237 2.50884,2.50883 v 28.05943 c 0,9.04503 4.7536,15.05305 14.12875,15.05305 9.17709,0 14.59091,-6.20609 14.59091,-14.921 v -28.19148 c 0,-1.38646 1.25441,-2.50883 2.50884,-2.50883 h 6.66824 m -98.37305,-27.20114 c -22.84367,0 -41.26386,17.75995 -41.26386,41.46192 0,23.76799 18.42019,41.46193 41.26386,41.46193 3.89531,0 7.65857,-0.52817 11.22378,-1.5185 l 4.4895,11.55389 c 0.46216,1.25441 1.38647,2.04667 3.03702,2.04667 h 7.1304 c 1.71657,0 2.971,-1.12237 2.17873,-3.3011 l -5.80995,-15.11908 c 11.42183,-7.19642 19.01438,-19.9387 19.01438,-35.18983 0,-23.63594 -18.42019,-41.3959 -41.26386,-41.3959 m 17.95804,65.56003 -5.21576,-13.53455 c -0.46216,-1.12237 -1.38646,-2.17873 -3.36713,-2.17873 h -6.80029 c -1.71657,0 -3.03702,1.12237 -2.24475,3.30111 l 6.86631,17.75997 c -2.24476,0.5942 -4.68758,0.85828 -7.19642,0.85828 -16.70361,0 -28.5876,-13.1384 -28.5876,-30.30417 0,-17.16577 11.88399,-30.30418 28.5876,-30.30418 16.70361,0 28.5876,13.13841 28.5876,30.30418 0,10.03537 -4.02735,18.61825 -10.62956,24.09809 m 457.92982,13.20444 c 0.5942,1.38646 -0.13204,2.70691 -1.78259,2.70691 h -7.46052 c -1.38646,0 -2.50883,-0.66022 -2.97099,-2.0467 l -13.79863,-37.10446 -13.99671,37.10445 c -0.5942,1.4525 -1.58453,2.04669 -2.971,2.04669 h -6.66823 c -1.38647,0 -2.3768,-0.59419 -2.971,-2.04669 l -14.12875,-37.30253 -13.93068,37.30253 c -0.5942,1.38647 -1.58453,2.04669 -2.971,2.04669 h -6.99834 c -1.38647,0 -2.3768,-0.66022 -2.971,-2.04669 l -13.79864,-37.30253 -14.26079,37.30253 c -0.5942,1.4525 -1.58453,2.04669 -2.971,2.04669 h -6.66824 c -1.38647,0 -2.3768,-0.59419 -2.971,-2.04669 l -13.93067,-37.30253 -13.93068,37.30253 c -0.46216,1.38647 -1.58454,2.04669 -2.971,2.04669 h -7.26245 c -1.71657,0 -2.37679,-1.38646 -1.7826,-2.70691 l 18.88235,-49.38459 c 0.5942,-1.45249 1.58453,-2.17872 2.971,-2.17872 h 8.12072 c 1.38647,0 2.3768,0.66021 2.971,2.17872 l 13.60057,36.04811 13.46853,-36.04811 c 0.5942,-1.45249 1.58453,-2.17872 2.971,-2.17872 h 7.98868 c 1.38647,0 2.3768,0.66021 2.971,2.17872 l 13.33648,36.04811 13.33647,-36.04811 c 0.5942,-1.45249 1.58454,-2.17872 2.971,-2.17872 h 8.05471 c 1.38647,0 2.3768,0.66021 2.971,2.17872 l 13.53455,36.04811 13.20443,-36.04811 c 0.5942,-1.45249 1.58453,-2.17872 2.971,-2.17872 h 8.12072 c 1.38647,0 2.3768,0.66021 2.971,2.17872 l 18.7503,49.38459 m -312.8791,-51.49729 h -6.66824 c -1.38646,0 -2.57486,1.12237 -2.57486,2.57487 v 4.48949 c -3.36713,-5.08369 -9.96935,-8.71492 -17.75997,-8.71492 -14.72295,0 -27.33318,11.61989 -27.33318,28.58761 0,17.16576 12.67626,28.71964 27.26715,28.71964 7.92266,0 14.32682,-3.63121 17.89202,-8.71492 v 4.75359 c 0,1.38647 1.25442,2.50885 2.57486,2.50885 h 6.66825 c 1.38646,0 2.50883,-1.12238 2.50883,-2.50885 v -49.12049 c -0.066,-1.4525 -1.18839,-2.57487 -2.57486,-2.57487 m -25.74865,44.82906 c -9.70526,0 -16.63759,-7.92266 -16.63759,-17.75997 0,-9.96936 6.86631,-17.62792 16.63759,-17.62792 9.63924,0 16.63759,7.65856 16.63759,17.62792 -0.066,9.90332 -7.06438,17.75997 -16.63759,17.75997 m 105.30537,1.71657 c 1.45249,1.7826 0.19807,3.16907 -0.5942,3.76327 -4.62154,3.49918 -10.76161,5.41382 -17.42985,5.41382 -16.83565,0 -28.05943,-12.34615 -28.05943,-28.58761 0,-16.24145 11.22378,-28.71964 28.05943,-28.71964 6.66824,0 12.74228,1.91464 17.42985,5.41381 0.79227,0.5942 1.91465,1.7826 0.5942,3.76326 l -3.16906,4.42349 c -1.25442,1.71658 -2.70691,1.25442 -3.96133,0.46216 -2.971,-1.78261 -6.47017,-3.30111 -10.49753,-3.30111 -9.8373,0 -16.37349,7.92266 -16.37349,17.95803 0,10.03537 6.53619,17.89201 16.37349,17.89201 4.09337,0 7.32846,-1.58452 10.29946,-3.30111 1.25443,-0.66021 2.57487,-1.25441 3.96133,0.5942 z m 31.42656,-48.06414 c -15.84532,0 -28.45556,12.41217 -28.45556,28.5876 0,16.30748 12.67626,28.5876 28.45556,28.5876 15.84532,0 28.45556,-12.34615 28.45556,-28.5876 0.066,-16.10941 -12.61024,-28.5876 -28.45556,-28.5876 m 0,46.28154 c -9.70526,0 -16.63758,-7.79062 -16.63758,-17.62792 0,-9.96935 6.8663,-17.62792 16.63758,-17.62792 9.70526,0 16.63759,7.65857 16.63759,17.62792 0,9.8373 -6.8663,17.62792 -16.63759,17.62792 m -87.61143,-70.57771 c 1.45249,0 2.50885,1.25442 2.50885,2.57487 v 74.86915 c 0,1.38646 -0.99034,2.57486 -2.50885,2.57486 h -6.66824 c -1.38646,0 -2.57486,-1.25442 -2.57486,-2.57486 v -74.80314 c 0,-1.38646 1.25441,-2.57486 2.57486,-2.57486 h 6.66824"
     id="path4"
     style="fill:#3253dc;fill-opacity:1;stroke-width:0.66022182"
     inkscape:connector-curvature="0"
     inkscape:export-filename="C:\Users\suitedoalex\Downloads\qualcomm-logo-5.png"
     inkscape:export-xdpi="129.89095"
     inkscape:export-ydpi="129.89095" />
</svg>
